<?xml version="1.0" encoding="UTF-8"?><svg xmlns="http://www.w3.org/2000/svg" xmlns:xlink="http://www.w3.org/1999/xlink" contentScriptType="text/ecmascript" width="375pt" zoomAndPan="magnify" contentStyleType="text/css" viewBox="0 0 375 374.999991" height="374.999991pt" preserveAspectRatio="xMidYMid meet" version="1.2"><defs><g/></defs><g xml:id="surface1" id="surface1"><path style=" stroke:none;fill-rule:nonzero;fill:rgb(91.369629%,76.078796%,38.038635%);fill-opacity:1;" d="M 81.0625 199.214844 L 76.226562 214.101562 L 89.058594 211.433594 L 85.007812 198.941406 Z M 75.507812 215.230469 C 75.371094 215.230469 75.238281 215.175781 75.144531 215.070312 C 75.03125 214.941406 74.992188 214.761719 75.046875 214.597656 L 80.238281 198.601562 C 80.300781 198.414062 80.46875 198.28125 80.667969 198.269531 L 85.320312 197.949219 C 85.542969 197.9375 85.746094 198.070312 85.8125 198.28125 L 90.148438 211.648438 C 90.191406 211.78125 90.175781 211.925781 90.109375 212.042969 C 90.039062 212.164062 89.921875 212.246094 89.789062 212.273438 L 75.605469 215.222656 C 75.574219 215.230469 75.539062 215.230469 75.507812 215.230469 "/><g clip-rule="nonzero"><path style=" stroke:none;fill-rule:nonzero;fill:rgb(91.369629%,76.078796%,38.038635%);fill-opacity:1;" d="M 72.03125 227.027344 L 76.652344 230.386719 L 93.289062 224.46875 L 89.359375 212.363281 L 75.882812 215.164062 Z M 76.574219 231.414062 C 76.472656 231.414062 76.375 231.382812 76.289062 231.324219 L 71.175781 227.601562 C 71.007812 227.480469 70.9375 227.261719 71 227.058594 L 75.046875 214.597656 C 75.101562 214.429688 75.238281 214.308594 75.410156 214.273438 L 89.589844 211.324219 C 89.832031 211.277344 90.070312 211.414062 90.148438 211.648438 L 94.359375 224.621094 C 94.441406 224.871094 94.308594 225.136719 94.058594 225.226562 L 76.738281 231.386719 C 76.683594 231.40625 76.628906 231.414062 76.574219 231.414062 "/></g><path style=" stroke:none;fill-rule:nonzero;fill:rgb(91.369629%,76.078796%,38.038635%);fill-opacity:1;" d="M 102.789062 250.589844 L 102.839844 250.730469 L 102.914062 250.679688 Z M 102.578125 251.996094 C 102.527344 251.996094 102.476562 251.988281 102.425781 251.96875 C 102.277344 251.921875 102.164062 251.804688 102.117188 251.65625 L 101.410156 249.46875 C 101.34375 249.269531 101.414062 249.050781 101.585938 248.925781 C 101.757812 248.804688 101.984375 248.804688 102.15625 248.925781 L 104.03125 250.292969 C 104.160156 250.382812 104.234375 250.53125 104.230469 250.6875 C 104.230469 250.84375 104.15625 250.988281 104.027344 251.082031 L 102.855469 251.90625 C 102.777344 251.964844 102.675781 251.996094 102.578125 251.996094 "/><path style=" stroke:none;fill-rule:nonzero;fill:rgb(91.369629%,76.078796%,38.038635%);fill-opacity:1;" d="M 77.605469 231.078125 L 91.140625 240.917969 L 97.550781 237.59375 L 93.589844 225.394531 Z M 91.097656 241.96875 C 91 241.96875 90.898438 241.941406 90.8125 241.878906 L 76.289062 231.324219 C 76.144531 231.214844 76.066406 231.039062 76.09375 230.859375 C 76.121094 230.679688 76.242188 230.53125 76.414062 230.472656 L 93.734375 224.3125 C 93.859375 224.265625 93.996094 224.273438 94.113281 224.332031 C 94.230469 224.390625 94.320312 224.496094 94.359375 224.617188 L 98.601562 237.683594 C 98.675781 237.910156 98.574219 238.15625 98.363281 238.265625 L 91.320312 241.917969 C 91.25 241.953125 91.175781 241.96875 91.097656 241.96875 "/><path style=" stroke:none;fill-rule:nonzero;fill:rgb(91.369629%,76.078796%,38.038635%);fill-opacity:1;" d="M 92.019531 241.554688 L 100.949219 248.050781 L 97.855469 238.527344 Z M 101.871094 249.804688 C 101.769531 249.804688 101.671875 249.773438 101.585938 249.710938 L 90.8125 241.878906 C 90.679688 241.777344 90.605469 241.617188 90.617188 241.449219 C 90.628906 241.28125 90.726562 241.132812 90.875 241.054688 L 97.917969 237.40625 C 98.042969 237.339844 98.191406 237.332031 98.324219 237.386719 C 98.457031 237.441406 98.558594 237.550781 98.601562 237.683594 L 102.332031 249.167969 C 102.398438 249.367188 102.328125 249.589844 102.15625 249.710938 C 102.070312 249.773438 101.96875 249.804688 101.871094 249.804688 "/><path style=" stroke:none;fill-rule:nonzero;fill:rgb(91.369629%,76.078796%,38.038635%);fill-opacity:1;" d="M 92.019531 141.3125 L 97.855469 144.335938 L 100.949219 134.820312 Z M 98.140625 145.515625 C 98.0625 145.515625 97.988281 145.496094 97.917969 145.460938 L 90.875 141.8125 C 90.726562 141.734375 90.628906 141.585938 90.617188 141.417969 C 90.605469 141.25 90.679688 141.085938 90.8125 140.988281 L 101.585938 133.15625 C 101.757812 133.03125 101.984375 133.03125 102.15625 133.15625 C 102.328125 133.277344 102.398438 133.5 102.332031 133.695312 L 98.601562 145.179688 C 98.558594 145.316406 98.457031 145.425781 98.324219 145.480469 C 98.265625 145.503906 98.203125 145.515625 98.140625 145.515625 "/><path style=" stroke:none;fill-rule:nonzero;fill:rgb(91.369629%,76.078796%,38.038635%);fill-opacity:1;" d="M 83.078125 193.003906 L 81.382812 198.21875 L 84.699219 197.992188 Z M 80.703125 199.238281 C 80.550781 199.238281 80.410156 199.171875 80.320312 199.050781 C 80.21875 198.925781 80.191406 198.757812 80.238281 198.601562 L 82.617188 191.285156 C 82.679688 191.082031 82.867188 190.949219 83.078125 190.949219 C 83.289062 190.949219 83.472656 191.082031 83.539062 191.285156 L 85.8125 198.28125 C 85.859375 198.425781 85.835938 198.582031 85.753906 198.703125 C 85.671875 198.828125 85.535156 198.90625 85.386719 198.917969 L 80.734375 199.238281 C 80.722656 199.238281 80.714844 199.238281 80.703125 199.238281 "/><path style=" stroke:none;fill-rule:nonzero;fill:rgb(91.369629%,76.078796%,38.038635%);fill-opacity:1;" d="M 77.605469 151.789062 L 93.589844 157.472656 L 97.550781 145.273438 L 91.140625 141.949219 Z M 93.898438 158.585938 C 93.84375 158.585938 93.789062 158.574219 93.734375 158.554688 L 76.414062 152.394531 C 76.242188 152.335938 76.121094 152.1875 76.09375 152.007812 C 76.066406 151.828125 76.144531 151.652344 76.289062 151.546875 L 90.8125 140.988281 C 90.960938 140.882812 91.160156 140.867188 91.320312 140.953125 L 98.363281 144.601562 C 98.574219 144.710938 98.675781 144.957031 98.601562 145.179688 L 94.359375 158.25 C 94.320312 158.375 94.230469 158.476562 94.113281 158.53125 C 94.042969 158.566406 93.96875 158.585938 93.898438 158.585938 "/><g clip-rule="nonzero"><path style=" stroke:none;fill-rule:nonzero;fill:rgb(91.369629%,76.078796%,38.038635%);fill-opacity:1;" d="M 75.882812 167.703125 L 89.359375 170.503906 L 93.289062 158.394531 L 76.652344 152.480469 L 72.03125 155.84375 Z M 89.6875 171.554688 C 89.65625 171.554688 89.621094 171.550781 89.589844 171.542969 L 75.410156 168.597656 C 75.238281 168.5625 75.101562 168.4375 75.046875 168.269531 L 71 155.804688 C 70.9375 155.605469 71.007812 155.386719 71.175781 155.265625 L 76.289062 151.546875 C 76.417969 151.453125 76.585938 151.425781 76.738281 151.480469 L 94.058594 157.640625 C 94.308594 157.730469 94.441406 158 94.359375 158.25 L 90.148438 171.21875 C 90.082031 171.421875 89.894531 171.554688 89.6875 171.554688 "/></g><path style=" stroke:none;fill-rule:nonzero;fill:rgb(91.369629%,76.078796%,38.038635%);fill-opacity:1;" d="M 81.382812 184.648438 L 83.078125 189.863281 L 84.699219 184.875 Z M 83.078125 191.917969 C 82.867188 191.917969 82.679688 191.78125 82.617188 191.585938 L 80.238281 184.261719 C 80.191406 184.109375 80.21875 183.941406 80.320312 183.816406 C 80.417969 183.6875 80.574219 183.617188 80.734375 183.628906 L 85.386719 183.949219 C 85.535156 183.960938 85.671875 184.039062 85.753906 184.164062 C 85.835938 184.285156 85.859375 184.441406 85.8125 184.585938 L 83.539062 191.585938 C 83.472656 191.78125 83.289062 191.917969 83.078125 191.917969 "/><path style=" stroke:none;fill-rule:nonzero;fill:rgb(91.369629%,76.078796%,38.038635%);fill-opacity:1;" d="M 81.0625 183.652344 L 85.007812 183.925781 L 89.058594 171.433594 L 76.226562 168.765625 Z M 85.351562 184.917969 C 85.339844 184.917969 85.328125 184.917969 85.320312 184.917969 L 80.667969 184.597656 C 80.46875 184.585938 80.300781 184.453125 80.238281 184.261719 L 75.046875 168.269531 C 74.992188 168.105469 75.03125 167.925781 75.144531 167.796875 C 75.261719 167.667969 75.4375 167.609375 75.605469 167.644531 L 89.789062 170.589844 C 89.921875 170.621094 90.039062 170.707031 90.109375 170.824219 C 90.175781 170.941406 90.191406 171.085938 90.148438 171.21875 L 85.8125 184.585938 C 85.75 184.785156 85.5625 184.917969 85.351562 184.917969 "/><path style=" stroke:none;fill-rule:nonzero;fill:rgb(91.369629%,76.078796%,38.038635%);fill-opacity:1;" d="M 102.839844 132.136719 L 102.789062 132.277344 L 102.914062 132.191406 Z M 101.871094 134.03125 C 101.769531 134.03125 101.671875 134.003906 101.585938 133.941406 C 101.414062 133.816406 101.34375 133.597656 101.410156 133.398438 L 102.117188 131.210938 C 102.164062 131.0625 102.277344 130.949219 102.425781 130.898438 C 102.570312 130.847656 102.730469 130.871094 102.859375 130.960938 L 104.027344 131.789062 C 104.15625 131.878906 104.230469 132.023438 104.230469 132.179688 C 104.230469 132.335938 104.160156 132.484375 104.03125 132.578125 L 102.15625 133.941406 C 102.070312 134.003906 101.96875 134.03125 101.871094 134.03125 "/><path style=" stroke:none;fill-rule:nonzero;fill:rgb(91.369629%,76.078796%,38.038635%);fill-opacity:1;" d="M 103.152344 251.699219 L 107.640625 265.519531 L 114.503906 259.109375 L 103.742188 251.28125 Z M 107.414062 266.878906 C 107.375 266.878906 107.332031 266.875 107.292969 266.863281 C 107.128906 266.824219 107.003906 266.703125 106.953125 266.546875 L 102.117188 251.660156 C 102.050781 251.457031 102.125 251.234375 102.300781 251.109375 L 103.46875 250.289062 C 103.636719 250.167969 103.863281 250.167969 104.03125 250.292969 L 115.550781 258.667969 C 115.667969 258.753906 115.742188 258.886719 115.75 259.03125 C 115.757812 259.175781 115.699219 259.316406 115.597656 259.414062 L 107.746094 266.75 C 107.652344 266.835938 107.535156 266.878906 107.414062 266.878906 "/><path style=" stroke:none;fill-rule:nonzero;fill:rgb(91.369629%,76.078796%,38.038635%);fill-opacity:1;" d="M 103.152344 131.167969 L 103.742188 131.585938 L 114.503906 123.761719 L 107.640625 117.347656 Z M 103.746094 132.667969 C 103.648438 132.667969 103.550781 132.640625 103.46875 132.582031 L 102.296875 131.753906 C 102.125 131.632812 102.050781 131.410156 102.117188 131.210938 L 106.953125 116.320312 C 107.003906 116.164062 107.128906 116.042969 107.292969 116 C 107.453125 115.960938 107.625 116.003906 107.746094 116.117188 L 115.597656 123.453125 C 115.699219 123.550781 115.757812 123.691406 115.75 123.835938 C 115.742188 123.980469 115.667969 124.113281 115.550781 124.199219 L 104.03125 132.578125 C 103.945312 132.636719 103.847656 132.667969 103.746094 132.667969 "/><path style=" stroke:none;fill-rule:nonzero;fill:rgb(91.369629%,76.078796%,38.038635%);fill-opacity:1;" d="M 107.96875 116.328125 L 115.304688 123.179688 L 125.488281 115.773438 L 113.097656 100.53125 Z M 115.265625 124.292969 C 115.144531 124.292969 115.027344 124.246094 114.933594 124.160156 L 107.082031 116.828125 C 106.945312 116.699219 106.894531 116.503906 106.953125 116.320312 L 112.453125 99.382812 C 112.507812 99.214844 112.648438 99.085938 112.824219 99.054688 C 113 99.019531 113.175781 99.085938 113.289062 99.226562 L 126.5625 115.558594 C 126.648438 115.664062 126.683594 115.796875 126.667969 115.929688 C 126.652344 116.0625 126.578125 116.179688 126.472656 116.257812 L 115.550781 124.199219 C 115.464844 124.261719 115.367188 124.292969 115.265625 124.292969 "/><path style=" stroke:none;fill-rule:nonzero;fill:rgb(91.369629%,76.078796%,38.038635%);fill-opacity:1;" d="M 107.96875 266.539062 L 113.097656 282.335938 L 125.488281 267.09375 L 115.304688 259.691406 Z M 112.914062 283.820312 C 112.882812 283.820312 112.855469 283.816406 112.824219 283.8125 C 112.648438 283.777344 112.507812 283.652344 112.453125 283.484375 L 106.953125 266.546875 C 106.894531 266.367188 106.945312 266.167969 107.082031 266.039062 L 114.933594 258.707031 C 115.105469 258.550781 115.363281 258.53125 115.550781 258.667969 L 126.472656 266.609375 C 126.578125 266.6875 126.652344 266.808594 126.667969 266.9375 C 126.683594 267.070312 126.648438 267.203125 126.5625 267.308594 L 113.289062 283.640625 C 113.195312 283.757812 113.058594 283.820312 112.914062 283.820312 "/><path style=" stroke:none;fill-rule:nonzero;fill:rgb(91.369629%,76.078796%,38.038635%);fill-opacity:1;" d="M 113.457031 99.429688 L 126.273438 115.203125 L 136.296875 107.914062 L 126.039062 91.039062 L 116.179688 91.039062 Z M 126.1875 116.351562 C 126.046875 116.351562 125.90625 116.289062 125.808594 116.171875 L 112.539062 99.839844 C 112.433594 99.710938 112.402344 99.539062 112.453125 99.382812 L 115.367188 90.402344 C 115.433594 90.203125 115.617188 90.066406 115.828125 90.066406 L 126.3125 90.066406 C 126.480469 90.066406 126.640625 90.15625 126.726562 90.300781 L 137.359375 107.792969 C 137.488281 108.011719 137.433594 108.289062 137.230469 108.4375 L 126.472656 116.257812 C 126.386719 116.320312 126.285156 116.351562 126.1875 116.351562 "/><path style=" stroke:none;fill-rule:nonzero;fill:rgb(91.369629%,76.078796%,38.038635%);fill-opacity:1;" d="M 116.179688 291.828125 L 126.039062 291.828125 L 136.296875 274.953125 L 126.273438 267.664062 L 113.457031 283.4375 Z M 126.3125 292.800781 L 115.828125 292.800781 C 115.617188 292.800781 115.433594 292.664062 115.367188 292.464844 L 112.453125 283.484375 C 112.402344 283.328125 112.433594 283.15625 112.539062 283.027344 L 125.808594 266.695312 C 125.972656 266.496094 126.265625 266.460938 126.472656 266.609375 L 137.230469 274.429688 C 137.433594 274.578125 137.488281 274.859375 137.359375 275.074219 L 126.726562 292.566406 C 126.640625 292.710938 126.480469 292.800781 126.3125 292.800781 "/><path style=" stroke:none;fill-rule:nonzero;fill:rgb(91.369629%,76.078796%,38.038635%);fill-opacity:1;" d="M 127.175781 91.039062 L 137.082031 107.34375 L 147.347656 99.878906 L 143.511719 91.039062 Z M 136.941406 108.53125 C 136.910156 108.53125 136.878906 108.527344 136.847656 108.523438 C 136.714844 108.496094 136.601562 108.414062 136.527344 108.296875 L 125.898438 90.804688 C 125.808594 90.65625 125.804688 90.46875 125.890625 90.316406 C 125.976562 90.164062 126.136719 90.066406 126.3125 90.066406 L 143.828125 90.066406 C 144.023438 90.066406 144.199219 90.183594 144.273438 90.359375 L 148.394531 99.847656 C 148.480469 100.058594 148.414062 100.300781 148.230469 100.4375 L 137.230469 108.4375 C 137.144531 108.5 137.046875 108.53125 136.941406 108.53125 "/><path style=" stroke:none;fill-rule:nonzero;fill:rgb(91.369629%,76.078796%,38.038635%);fill-opacity:1;" d="M 127.175781 291.828125 L 143.511719 291.828125 L 147.347656 282.988281 L 137.082031 275.523438 Z M 143.828125 292.800781 L 126.3125 292.800781 C 126.136719 292.800781 125.976562 292.707031 125.890625 292.550781 C 125.804688 292.398438 125.808594 292.210938 125.898438 292.0625 L 136.527344 274.566406 C 136.601562 274.453125 136.714844 274.371094 136.847656 274.34375 C 136.980469 274.320312 137.121094 274.347656 137.230469 274.429688 L 148.230469 282.433594 C 148.414062 282.566406 148.480469 282.808594 148.394531 283.019531 L 144.273438 292.507812 C 144.199219 292.683594 144.023438 292.800781 143.828125 292.800781 "/><path style=" stroke:none;fill-rule:nonzero;fill:rgb(91.369629%,76.078796%,38.038635%);fill-opacity:1;" d="M 144.570312 91.039062 L 148.152344 99.292969 L 159.089844 91.34375 L 159.003906 91.039062 Z M 147.949219 100.527344 C 147.902344 100.527344 147.859375 100.519531 147.820312 100.507812 C 147.675781 100.472656 147.5625 100.371094 147.503906 100.234375 L 143.386719 90.746094 C 143.320312 90.597656 143.335938 90.421875 143.425781 90.285156 C 143.515625 90.148438 143.667969 90.066406 143.828125 90.066406 L 159.371094 90.066406 C 159.589844 90.066406 159.78125 90.214844 159.839844 90.425781 L 160.113281 91.410156 C 160.167969 91.605469 160.09375 91.8125 159.929688 91.933594 L 148.230469 100.4375 C 148.148438 100.496094 148.046875 100.527344 147.949219 100.527344 "/><path style=" stroke:none;fill-rule:nonzero;fill:rgb(91.369629%,76.078796%,38.038635%);fill-opacity:1;" d="M 144.570312 291.828125 L 159.003906 291.828125 L 159.089844 291.523438 L 148.152344 283.574219 Z M 159.371094 292.800781 L 143.828125 292.800781 C 143.667969 292.800781 143.515625 292.71875 143.425781 292.582031 C 143.335938 292.445312 143.320312 292.269531 143.386719 292.121094 L 147.503906 282.632812 C 147.5625 282.496094 147.675781 282.394531 147.820312 282.355469 C 147.960938 282.320312 148.113281 282.347656 148.230469 282.433594 L 159.929688 290.9375 C 160.09375 291.054688 160.167969 291.261719 160.113281 291.457031 L 159.839844 292.445312 C 159.78125 292.652344 159.589844 292.800781 159.371094 292.800781 "/><path style=" stroke:none;fill-rule:nonzero;fill:rgb(91.369629%,76.078796%,38.038635%);fill-opacity:1;" d="M 161 292.800781 L 159.371094 292.800781 C 159.222656 292.800781 159.078125 292.726562 158.988281 292.609375 C 158.894531 292.488281 158.863281 292.332031 158.90625 292.1875 L 159.179688 291.199219 C 159.21875 291.046875 159.335938 290.921875 159.484375 290.871094 C 159.632812 290.820312 159.800781 290.84375 159.929688 290.9375 L 161.285156 291.921875 C 161.453125 292.046875 161.523438 292.265625 161.457031 292.464844 C 161.394531 292.664062 161.207031 292.800781 161 292.800781 "/><path style=" stroke:none;fill-rule:nonzero;fill:rgb(91.369629%,76.078796%,38.038635%);fill-opacity:1;" d="M 159.644531 92.023438 C 159.589844 92.023438 159.539062 92.015625 159.484375 91.996094 C 159.335938 91.945312 159.21875 91.820312 159.179688 91.667969 L 158.90625 90.683594 C 158.863281 90.535156 158.894531 90.378906 158.988281 90.261719 C 159.078125 90.136719 159.222656 90.066406 159.371094 90.066406 L 161 90.066406 C 161.207031 90.066406 161.394531 90.203125 161.457031 90.402344 C 161.523438 90.601562 161.453125 90.824219 161.285156 90.945312 L 159.929688 91.929688 C 159.847656 91.992188 159.746094 92.023438 159.644531 92.023438 "/><path style=" stroke:none;fill-rule:nonzero;fill:rgb(91.369629%,76.078796%,38.038635%);fill-opacity:1;" d="M 162.492188 90.066406 L 173.203125 90.066406 L 172.230469 82.988281 Z M 173.757812 91.039062 L 161 91.039062 C 160.789062 91.039062 160.601562 90.902344 160.535156 90.703125 C 160.472656 90.503906 160.542969 90.285156 160.710938 90.160156 L 172.316406 81.722656 C 172.457031 81.625 172.636719 81.601562 172.792969 81.671875 C 172.949219 81.738281 173.058594 81.882812 173.082031 82.050781 L 174.238281 90.488281 C 174.257812 90.625 174.214844 90.765625 174.121094 90.871094 C 174.03125 90.976562 173.898438 91.039062 173.757812 91.039062 "/><path style=" stroke:none;fill-rule:nonzero;fill:rgb(91.369629%,76.078796%,38.038635%);fill-opacity:1;" d="M 162.492188 292.800781 L 172.230469 299.882812 L 173.203125 292.800781 Z M 172.601562 301.234375 C 172.503906 301.234375 172.402344 301.203125 172.316406 301.144531 L 160.710938 292.707031 C 160.542969 292.585938 160.472656 292.363281 160.535156 292.164062 C 160.601562 291.964844 160.789062 291.828125 161 291.828125 L 173.757812 291.828125 C 173.898438 291.828125 174.03125 291.890625 174.121094 291.996094 C 174.214844 292.101562 174.257812 292.242188 174.238281 292.378906 L 173.082031 300.816406 C 173.058594 300.984375 172.949219 301.128906 172.792969 301.195312 C 172.730469 301.222656 172.667969 301.234375 172.601562 301.234375 "/><path style=" stroke:none;fill-rule:nonzero;fill:rgb(91.369629%,76.078796%,38.038635%);fill-opacity:1;" d="M 103.746094 132.183594 L 103.75 132.183594 Z M 161.15625 291.828125 L 214.070312 291.828125 L 272.941406 249.019531 L 291.636719 191.433594 L 272.941406 133.847656 L 214.070312 91.039062 L 161.15625 91.039062 L 104.03125 132.578125 L 102.28125 133.847656 L 83.589844 191.433594 L 102.28125 249.019531 Z M 214.226562 292.800781 L 161 292.800781 C 160.894531 292.800781 160.796875 292.765625 160.710938 292.707031 L 101.585938 249.710938 C 101.503906 249.652344 101.441406 249.566406 101.410156 249.46875 L 82.617188 191.585938 C 82.585938 191.484375 82.585938 191.382812 82.617188 191.285156 L 101.410156 133.398438 C 101.441406 133.300781 101.503906 133.214844 101.585938 133.15625 L 160.710938 90.160156 C 160.796875 90.101562 160.894531 90.066406 161 90.066406 L 214.226562 90.066406 C 214.328125 90.066406 214.429688 90.101562 214.511719 90.160156 L 273.640625 133.15625 C 273.722656 133.214844 273.785156 133.300781 273.816406 133.398438 L 292.609375 191.285156 C 292.640625 191.382812 292.640625 191.484375 292.609375 191.585938 L 273.816406 249.46875 C 273.785156 249.566406 273.722656 249.652344 273.640625 249.710938 L 214.511719 292.707031 C 214.429688 292.765625 214.332031 292.800781 214.226562 292.800781 "/><g clip-rule="nonzero"><path style=" stroke:none;fill-rule:nonzero;fill:rgb(91.369629%,76.078796%,38.038635%);fill-opacity:1;" d="M 174.179688 90.066406 L 187.128906 90.066406 L 187.128906 72.15625 L 173.121094 82.339844 Z M 187.613281 91.039062 L 173.757812 91.039062 C 173.515625 91.039062 173.308594 90.859375 173.277344 90.621094 L 172.121094 82.183594 C 172.097656 82.007812 172.171875 81.832031 172.316406 81.722656 L 187.328125 70.808594 C 187.476562 70.699219 187.667969 70.683594 187.832031 70.769531 C 187.996094 70.851562 188.097656 71.019531 188.097656 71.199219 L 188.097656 90.554688 C 188.097656 90.820312 187.878906 91.039062 187.613281 91.039062 "/></g><g clip-rule="nonzero"><path style=" stroke:none;fill-rule:nonzero;fill:rgb(91.369629%,76.078796%,38.038635%);fill-opacity:1;" d="M 173.121094 300.527344 L 187.128906 310.714844 L 187.128906 292.800781 L 174.179688 292.800781 Z M 187.613281 312.152344 C 187.511719 312.152344 187.410156 312.121094 187.328125 312.058594 L 172.316406 301.144531 C 172.171875 301.039062 172.097656 300.863281 172.121094 300.683594 L 173.277344 292.25 C 173.308594 292.007812 173.515625 291.828125 173.757812 291.828125 L 187.613281 291.828125 C 187.878906 291.828125 188.097656 292.046875 188.097656 292.316406 L 188.097656 311.667969 C 188.097656 311.847656 187.996094 312.015625 187.832031 312.097656 C 187.765625 312.132812 187.6875 312.152344 187.613281 312.152344 "/></g><g clip-rule="nonzero"><path style=" stroke:none;fill-rule:nonzero;fill:rgb(91.369629%,76.078796%,38.038635%);fill-opacity:1;" d="M 188.097656 90.066406 L 201.046875 90.066406 L 202.101562 82.339844 L 188.097656 72.15625 Z M 201.46875 91.039062 L 187.613281 91.039062 C 187.347656 91.039062 187.128906 90.820312 187.128906 90.554688 L 187.128906 71.199219 C 187.128906 71.019531 187.230469 70.851562 187.394531 70.769531 C 187.554688 70.683594 187.75 70.699219 187.898438 70.808594 L 202.910156 81.722656 C 203.050781 81.832031 203.128906 82.007812 203.101562 82.183594 L 201.949219 90.621094 C 201.914062 90.859375 201.710938 91.039062 201.46875 91.039062 "/></g><g clip-rule="nonzero"><path style=" stroke:none;fill-rule:nonzero;fill:rgb(91.369629%,76.078796%,38.038635%);fill-opacity:1;" d="M 188.097656 292.800781 L 188.097656 310.714844 L 202.101562 300.527344 L 201.046875 292.800781 Z M 187.613281 312.152344 C 187.539062 312.152344 187.464844 312.132812 187.394531 312.097656 C 187.230469 312.015625 187.128906 311.847656 187.128906 311.667969 L 187.128906 292.316406 C 187.128906 292.046875 187.347656 291.828125 187.613281 291.828125 L 201.46875 291.828125 C 201.710938 291.828125 201.914062 292.007812 201.949219 292.25 L 203.101562 300.683594 C 203.128906 300.863281 203.050781 301.039062 202.910156 301.144531 L 187.898438 312.058594 C 187.8125 312.121094 187.714844 312.152344 187.613281 312.152344 "/></g><path style=" stroke:none;fill-rule:nonzero;fill:rgb(91.369629%,76.078796%,38.038635%);fill-opacity:1;" d="M 202.027344 292.800781 L 202.992188 299.882812 L 212.734375 292.800781 Z M 202.621094 301.234375 C 202.558594 301.234375 202.492188 301.222656 202.433594 301.195312 C 202.277344 301.128906 202.164062 300.984375 202.144531 300.816406 L 200.988281 292.378906 C 200.96875 292.242188 201.011719 292.101562 201.101562 291.996094 C 201.195312 291.890625 201.328125 291.828125 201.46875 291.828125 L 214.226562 291.828125 C 214.4375 291.828125 214.625 291.964844 214.691406 292.164062 C 214.753906 292.363281 214.683594 292.585938 214.511719 292.707031 L 202.910156 301.144531 C 202.824219 301.203125 202.722656 301.234375 202.621094 301.234375 "/><path style=" stroke:none;fill-rule:nonzero;fill:rgb(91.369629%,76.078796%,38.038635%);fill-opacity:1;" d="M 202.027344 90.066406 L 212.734375 90.066406 L 202.992188 82.988281 Z M 214.226562 91.039062 L 201.46875 91.039062 C 201.328125 91.039062 201.195312 90.976562 201.101562 90.871094 C 201.011719 90.765625 200.96875 90.625 200.988281 90.488281 L 202.144531 82.050781 C 202.164062 81.882812 202.277344 81.738281 202.433594 81.671875 C 202.589844 81.601562 202.769531 81.625 202.910156 81.722656 L 214.511719 90.160156 C 214.683594 90.285156 214.753906 90.503906 214.691406 90.703125 C 214.625 90.902344 214.4375 91.039062 214.226562 91.039062 "/><path style=" stroke:none;fill-rule:nonzero;fill:rgb(91.369629%,76.078796%,38.038635%);fill-opacity:1;" d="M 215.582031 92.023438 C 215.480469 92.023438 215.378906 91.992188 215.296875 91.929688 L 213.941406 90.945312 C 213.773438 90.824219 213.703125 90.601562 213.765625 90.402344 C 213.832031 90.203125 214.015625 90.066406 214.226562 90.066406 L 215.851562 90.066406 C 216.003906 90.066406 216.148438 90.136719 216.238281 90.261719 C 216.332031 90.378906 216.359375 90.535156 216.320312 90.683594 L 216.046875 91.667969 C 216.007812 91.820312 215.890625 91.945312 215.742188 91.996094 C 215.691406 92.015625 215.636719 92.023438 215.582031 92.023438 "/><path style=" stroke:none;fill-rule:nonzero;fill:rgb(91.369629%,76.078796%,38.038635%);fill-opacity:1;" d="M 215.851562 292.800781 L 214.226562 292.800781 C 214.015625 292.800781 213.832031 292.664062 213.765625 292.464844 C 213.703125 292.265625 213.773438 292.046875 213.941406 291.921875 L 215.296875 290.9375 C 215.425781 290.84375 215.589844 290.820312 215.742188 290.871094 C 215.890625 290.921875 216.007812 291.046875 216.046875 291.199219 L 216.320312 292.183594 C 216.359375 292.332031 216.332031 292.488281 216.238281 292.609375 C 216.148438 292.726562 216.003906 292.800781 215.851562 292.800781 "/><path style=" stroke:none;fill-rule:nonzero;fill:rgb(91.369629%,76.078796%,38.038635%);fill-opacity:1;" d="M 216.140625 91.34375 L 227.074219 99.292969 L 230.65625 91.039062 L 216.222656 91.039062 Z M 227.277344 100.527344 C 227.175781 100.527344 227.078125 100.496094 226.992188 100.4375 L 215.296875 91.933594 C 215.132812 91.8125 215.058594 91.605469 215.113281 91.410156 L 215.386719 90.425781 C 215.445312 90.214844 215.636719 90.066406 215.851562 90.066406 L 231.398438 90.066406 C 231.558594 90.066406 231.714844 90.148438 231.800781 90.285156 C 231.890625 90.421875 231.90625 90.597656 231.839844 90.746094 L 227.722656 100.234375 C 227.664062 100.371094 227.550781 100.472656 227.40625 100.507812 C 227.363281 100.519531 227.320312 100.527344 227.277344 100.527344 "/><path style=" stroke:none;fill-rule:nonzero;fill:rgb(91.369629%,76.078796%,38.038635%);fill-opacity:1;" d="M 216.222656 291.828125 L 230.65625 291.828125 L 227.074219 283.574219 L 216.140625 291.523438 Z M 231.398438 292.800781 L 215.851562 292.800781 C 215.636719 292.800781 215.445312 292.652344 215.386719 292.445312 L 215.113281 291.457031 C 215.058594 291.261719 215.132812 291.054688 215.296875 290.9375 L 226.992188 282.433594 C 227.113281 282.347656 227.265625 282.320312 227.40625 282.355469 C 227.550781 282.394531 227.664062 282.496094 227.722656 282.632812 L 231.839844 292.121094 C 231.90625 292.269531 231.890625 292.445312 231.800781 292.582031 C 231.714844 292.71875 231.558594 292.800781 231.398438 292.800781 "/><path style=" stroke:none;fill-rule:nonzero;fill:rgb(91.369629%,76.078796%,38.038635%);fill-opacity:1;" d="M 231.714844 291.828125 L 248.050781 291.828125 L 238.140625 275.523438 L 227.878906 282.988281 Z M 248.914062 292.800781 L 231.398438 292.800781 C 231.203125 292.800781 231.027344 292.683594 230.953125 292.507812 L 226.832031 283.019531 C 226.742188 282.808594 226.808594 282.566406 226.992188 282.433594 L 238 274.429688 C 238.105469 274.347656 238.246094 274.320312 238.378906 274.34375 C 238.511719 274.371094 238.628906 274.453125 238.699219 274.566406 L 249.328125 292.0625 C 249.417969 292.210938 249.421875 292.398438 249.335938 292.550781 C 249.25 292.707031 249.089844 292.800781 248.914062 292.800781 "/><path style=" stroke:none;fill-rule:nonzero;fill:rgb(91.369629%,76.078796%,38.038635%);fill-opacity:1;" d="M 227.878906 99.878906 L 238.140625 107.34375 L 248.050781 91.039062 L 231.714844 91.039062 Z M 238.28125 108.53125 C 238.179688 108.53125 238.082031 108.5 238 108.4375 L 226.992188 100.4375 C 226.808594 100.300781 226.742188 100.058594 226.832031 99.847656 L 230.953125 90.359375 C 231.027344 90.183594 231.203125 90.066406 231.398438 90.066406 L 248.914062 90.066406 C 249.089844 90.066406 249.25 90.164062 249.335938 90.316406 C 249.421875 90.46875 249.417969 90.65625 249.328125 90.804688 L 238.699219 108.296875 C 238.628906 108.414062 238.511719 108.496094 238.378906 108.523438 C 238.347656 108.527344 238.316406 108.53125 238.28125 108.53125 "/><path style=" stroke:none;fill-rule:nonzero;fill:rgb(91.369629%,76.078796%,38.038635%);fill-opacity:1;" d="M 238.929688 107.914062 L 248.953125 115.203125 L 261.769531 99.429688 L 259.046875 91.039062 L 249.1875 91.039062 Z M 249.039062 116.351562 C 248.9375 116.351562 248.839844 116.320312 248.753906 116.257812 L 238 108.4375 C 237.792969 108.289062 237.738281 108.011719 237.867188 107.792969 L 248.5 90.300781 C 248.585938 90.15625 248.742188 90.066406 248.914062 90.066406 L 259.398438 90.066406 C 259.609375 90.066406 259.792969 90.203125 259.859375 90.402344 L 262.773438 99.382812 C 262.824219 99.539062 262.792969 99.710938 262.6875 99.839844 L 249.417969 116.171875 C 249.320312 116.289062 249.179688 116.351562 249.039062 116.351562 "/><path style=" stroke:none;fill-rule:nonzero;fill:rgb(91.369629%,76.078796%,38.038635%);fill-opacity:1;" d="M 249.1875 291.828125 L 259.046875 291.828125 L 261.769531 283.4375 L 248.953125 267.664062 L 238.929688 274.953125 Z M 259.398438 292.800781 L 248.914062 292.800781 C 248.742188 292.800781 248.585938 292.710938 248.5 292.566406 L 237.867188 275.074219 C 237.738281 274.859375 237.792969 274.578125 238 274.429688 L 248.753906 266.609375 C 248.964844 266.457031 249.253906 266.496094 249.417969 266.695312 L 262.6875 283.027344 C 262.792969 283.15625 262.824219 283.328125 262.773438 283.484375 L 259.859375 292.464844 C 259.792969 292.664062 259.609375 292.800781 259.398438 292.800781 "/><path style=" stroke:none;fill-rule:nonzero;fill:rgb(91.369629%,76.078796%,38.038635%);fill-opacity:1;" d="M 249.738281 115.773438 L 259.921875 123.179688 L 267.253906 116.328125 L 262.128906 100.53125 Z M 259.960938 124.292969 C 259.863281 124.292969 259.761719 124.261719 259.675781 124.199219 L 248.753906 116.257812 C 248.648438 116.179688 248.574219 116.0625 248.558594 115.929688 C 248.539062 115.796875 248.578125 115.664062 248.664062 115.558594 L 261.9375 99.226562 C 262.046875 99.085938 262.222656 99.019531 262.402344 99.054688 C 262.578125 99.085938 262.71875 99.214844 262.773438 99.382812 L 268.273438 116.320312 C 268.332031 116.503906 268.28125 116.699219 268.144531 116.828125 L 260.292969 124.160156 C 260.199219 124.246094 260.078125 124.292969 259.960938 124.292969 "/><path style=" stroke:none;fill-rule:nonzero;fill:rgb(91.369629%,76.078796%,38.038635%);fill-opacity:1;" d="M 249.738281 267.09375 L 262.128906 282.335938 L 267.253906 266.539062 L 259.921875 259.691406 Z M 262.3125 283.820312 C 262.167969 283.820312 262.027344 283.757812 261.9375 283.640625 L 248.664062 267.308594 C 248.578125 267.203125 248.539062 267.070312 248.558594 266.9375 C 248.574219 266.808594 248.648438 266.6875 248.753906 266.609375 L 259.675781 258.667969 C 259.863281 258.53125 260.121094 258.546875 260.292969 258.707031 L 268.144531 266.039062 C 268.28125 266.167969 268.332031 266.367188 268.273438 266.546875 L 262.773438 283.484375 C 262.71875 283.652344 262.578125 283.777344 262.402344 283.8125 C 262.371094 283.816406 262.339844 283.820312 262.3125 283.820312 "/><path style=" stroke:none;fill-rule:nonzero;fill:rgb(91.369629%,76.078796%,38.038635%);fill-opacity:1;" d="M 260.71875 259.109375 L 267.585938 265.519531 L 272.074219 251.699219 L 271.480469 251.28125 Z M 267.8125 266.878906 C 267.691406 266.878906 267.570312 266.835938 267.480469 266.75 L 259.628906 259.414062 C 259.523438 259.316406 259.46875 259.175781 259.476562 259.03125 C 259.484375 258.886719 259.558594 258.753906 259.675781 258.667969 L 271.195312 250.292969 C 271.359375 250.167969 271.589844 250.167969 271.757812 250.289062 L 272.925781 251.109375 C 273.101562 251.234375 273.175781 251.457031 273.109375 251.660156 L 268.273438 266.546875 C 268.222656 266.703125 268.09375 266.824219 267.933594 266.863281 C 267.890625 266.875 267.851562 266.878906 267.8125 266.878906 "/><path style=" stroke:none;fill-rule:nonzero;fill:rgb(91.369629%,76.078796%,38.038635%);fill-opacity:1;" d="M 260.71875 123.761719 L 271.480469 131.585938 L 272.074219 131.167969 L 267.585938 117.347656 Z M 271.476562 132.667969 C 271.378906 132.667969 271.277344 132.636719 271.195312 132.578125 L 259.675781 124.199219 C 259.558594 124.113281 259.484375 123.980469 259.476562 123.835938 C 259.46875 123.691406 259.523438 123.550781 259.628906 123.453125 L 267.480469 116.117188 C 267.601562 116.003906 267.769531 115.960938 267.933594 116 C 268.09375 116.042969 268.222656 116.164062 268.273438 116.320312 L 273.109375 131.210938 C 273.175781 131.410156 273.101562 131.632812 272.925781 131.753906 L 271.757812 132.582031 C 271.671875 132.640625 271.578125 132.667969 271.476562 132.667969 "/><path style=" stroke:none;fill-rule:nonzero;fill:rgb(91.369629%,76.078796%,38.038635%);fill-opacity:1;" d="M 272.3125 250.679688 L 272.390625 250.730469 L 272.433594 250.585938 Z M 272.648438 251.996094 C 272.550781 251.996094 272.449219 251.964844 272.367188 251.90625 L 271.199219 251.082031 C 271.070312 250.988281 270.996094 250.84375 270.992188 250.6875 C 270.992188 250.53125 271.066406 250.382812 271.195312 250.292969 L 273.070312 248.925781 C 273.242188 248.804688 273.46875 248.804688 273.640625 248.925781 C 273.808594 249.050781 273.882812 249.269531 273.816406 249.46875 L 273.109375 251.65625 C 273.0625 251.804688 272.945312 251.921875 272.800781 251.96875 C 272.75 251.988281 272.699219 251.996094 272.648438 251.996094 "/><path style=" stroke:none;fill-rule:nonzero;fill:rgb(91.369629%,76.078796%,38.038635%);fill-opacity:1;" d="M 272.3125 132.191406 L 272.433594 132.277344 L 272.390625 132.136719 Z M 273.355469 134.03125 C 273.253906 134.03125 273.15625 134.003906 273.070312 133.941406 L 271.195312 132.578125 C 271.066406 132.484375 270.992188 132.335938 270.992188 132.179688 C 270.996094 132.023438 271.070312 131.878906 271.199219 131.789062 L 272.367188 130.960938 C 272.492188 130.875 272.65625 130.847656 272.800781 130.898438 C 272.945312 130.949219 273.0625 131.0625 273.109375 131.210938 L 273.816406 133.398438 C 273.882812 133.597656 273.808594 133.816406 273.640625 133.941406 C 273.554688 134.003906 273.457031 134.03125 273.355469 134.03125 "/><path style=" stroke:none;fill-rule:nonzero;fill:rgb(91.369629%,76.078796%,38.038635%);fill-opacity:1;" d="M 274.277344 134.820312 L 277.371094 144.335938 L 283.203125 141.3125 Z M 277.085938 145.515625 C 277.023438 145.515625 276.960938 145.503906 276.898438 145.480469 C 276.769531 145.425781 276.667969 145.316406 276.625 145.179688 L 272.894531 133.695312 C 272.828125 133.5 272.898438 133.277344 273.070312 133.15625 C 273.242188 133.03125 273.46875 133.03125 273.640625 133.15625 L 284.410156 140.988281 C 284.546875 141.085938 284.621094 141.25 284.609375 141.417969 C 284.597656 141.585938 284.5 141.734375 284.347656 141.8125 L 277.308594 145.460938 C 277.238281 145.496094 277.160156 145.515625 277.085938 145.515625 "/><path style=" stroke:none;fill-rule:nonzero;fill:rgb(91.369629%,76.078796%,38.038635%);fill-opacity:1;" d="M 277.371094 238.527344 L 274.277344 248.050781 L 283.203125 241.554688 Z M 273.355469 249.804688 C 273.253906 249.804688 273.15625 249.773438 273.070312 249.710938 C 272.898438 249.589844 272.828125 249.367188 272.894531 249.167969 L 276.625 237.683594 C 276.667969 237.550781 276.769531 237.441406 276.898438 237.386719 C 277.03125 237.332031 277.183594 237.339844 277.308594 237.40625 L 284.347656 241.054688 C 284.5 241.132812 284.597656 241.28125 284.609375 241.449219 C 284.621094 241.617188 284.546875 241.777344 284.410156 241.878906 L 273.640625 249.710938 C 273.558594 249.773438 273.457031 249.804688 273.355469 249.804688 "/><path style=" stroke:none;fill-rule:nonzero;fill:rgb(91.369629%,76.078796%,38.038635%);fill-opacity:1;" d="M 290.527344 184.875 L 292.148438 189.863281 L 293.839844 184.648438 Z M 292.148438 191.917969 C 291.9375 191.917969 291.753906 191.78125 291.6875 191.585938 L 289.414062 184.585938 C 289.367188 184.441406 289.386719 184.285156 289.472656 184.164062 C 289.554688 184.039062 289.691406 183.960938 289.839844 183.949219 L 294.492188 183.628906 C 294.652344 183.621094 294.808594 183.6875 294.90625 183.816406 C 295.007812 183.941406 295.035156 184.109375 294.984375 184.261719 L 292.609375 191.585938 C 292.542969 191.78125 292.359375 191.917969 292.148438 191.917969 "/><path style=" stroke:none;fill-rule:nonzero;fill:rgb(91.369629%,76.078796%,38.038635%);fill-opacity:1;" d="M 290.527344 197.992188 L 293.839844 198.21875 L 292.148438 193.003906 Z M 294.523438 199.238281 C 294.515625 199.238281 294.5 199.238281 294.492188 199.238281 L 289.839844 198.917969 C 289.691406 198.90625 289.554688 198.828125 289.472656 198.703125 C 289.386719 198.582031 289.367188 198.425781 289.414062 198.28125 L 291.6875 191.285156 C 291.753906 191.082031 291.9375 190.949219 292.148438 190.949219 C 292.359375 190.949219 292.542969 191.082031 292.609375 191.285156 L 294.984375 198.601562 C 295.035156 198.757812 295.007812 198.925781 294.90625 199.050781 C 294.8125 199.171875 294.671875 199.238281 294.523438 199.238281 "/><path style=" stroke:none;fill-rule:nonzero;fill:rgb(91.369629%,76.078796%,38.038635%);fill-opacity:1;" d="M 277.671875 237.59375 L 284.082031 240.917969 L 297.621094 231.078125 L 281.636719 225.394531 Z M 284.128906 241.96875 C 284.050781 241.96875 283.972656 241.953125 283.902344 241.917969 L 276.863281 238.265625 C 276.652344 238.15625 276.550781 237.910156 276.625 237.683594 L 280.867188 224.617188 C 280.90625 224.496094 280.996094 224.390625 281.117188 224.332031 C 281.234375 224.273438 281.367188 224.269531 281.492188 224.3125 L 298.816406 230.472656 C 298.984375 230.53125 299.105469 230.679688 299.132812 230.859375 C 299.15625 231.039062 299.082031 231.214844 298.9375 231.324219 L 284.410156 241.878906 C 284.328125 241.941406 284.226562 241.96875 284.128906 241.96875 "/><path style=" stroke:none;fill-rule:nonzero;fill:rgb(91.369629%,76.078796%,38.038635%);fill-opacity:1;" d="M 277.671875 145.273438 L 281.636719 157.472656 L 297.621094 151.789062 L 284.082031 141.949219 Z M 281.328125 158.585938 C 281.253906 158.585938 281.183594 158.566406 281.117188 158.53125 C 280.996094 158.476562 280.90625 158.375 280.867188 158.25 L 276.625 145.179688 C 276.550781 144.957031 276.652344 144.710938 276.863281 144.601562 L 283.902344 140.953125 C 284.066406 140.867188 284.261719 140.882812 284.410156 140.988281 L 298.9375 151.546875 C 299.082031 151.652344 299.15625 151.828125 299.132812 152.007812 C 299.105469 152.1875 298.984375 152.335938 298.816406 152.394531 L 281.492188 158.554688 C 281.4375 158.574219 281.382812 158.585938 281.328125 158.585938 "/><path style=" stroke:none;fill-rule:nonzero;fill:rgb(91.369629%,76.078796%,38.038635%);fill-opacity:1;" d="M 286.164062 211.433594 L 299 214.101562 L 294.164062 199.214844 L 290.21875 198.941406 Z M 299.71875 215.230469 C 299.6875 215.230469 299.652344 215.230469 299.621094 215.222656 L 285.441406 212.273438 C 285.304688 212.246094 285.1875 212.164062 285.117188 212.042969 C 285.046875 211.925781 285.035156 211.78125 285.078125 211.648438 L 289.414062 198.28125 C 289.480469 198.070312 289.6875 197.9375 289.90625 197.949219 L 294.558594 198.269531 C 294.753906 198.28125 294.925781 198.414062 294.984375 198.601562 L 300.179688 214.597656 C 300.234375 214.761719 300.195312 214.941406 300.082031 215.070312 C 299.988281 215.175781 299.855469 215.230469 299.71875 215.230469 "/><path style=" stroke:none;fill-rule:nonzero;fill:rgb(91.369629%,76.078796%,38.038635%);fill-opacity:1;" d="M 286.164062 171.433594 L 290.21875 183.925781 L 294.164062 183.652344 L 299 168.765625 Z M 289.875 184.917969 C 289.664062 184.917969 289.476562 184.785156 289.414062 184.585938 L 285.078125 171.21875 C 285.035156 171.085938 285.046875 170.941406 285.117188 170.824219 C 285.1875 170.707031 285.304688 170.621094 285.441406 170.589844 L 299.621094 167.644531 C 299.789062 167.609375 299.964844 167.667969 300.082031 167.796875 C 300.195312 167.925781 300.234375 168.105469 300.179688 168.269531 L 294.984375 184.261719 C 294.925781 184.453125 294.753906 184.585938 294.558594 184.597656 L 289.90625 184.917969 C 289.894531 184.917969 289.882812 184.917969 289.875 184.917969 "/><g clip-rule="nonzero"><path style=" stroke:none;fill-rule:nonzero;fill:rgb(91.369629%,76.078796%,38.038635%);fill-opacity:1;" d="M 281.9375 224.46875 L 298.574219 230.386719 L 303.191406 227.027344 L 299.34375 215.164062 L 285.863281 212.363281 Z M 298.652344 231.414062 C 298.597656 231.414062 298.542969 231.40625 298.488281 231.386719 L 281.167969 225.226562 C 280.917969 225.136719 280.785156 224.871094 280.867188 224.621094 L 285.078125 211.648438 C 285.152344 211.414062 285.394531 211.277344 285.636719 211.324219 L 299.816406 214.273438 C 299.988281 214.308594 300.125 214.429688 300.179688 214.597656 L 304.222656 227.058594 C 304.289062 227.261719 304.21875 227.480469 304.050781 227.601562 L 298.9375 231.324219 C 298.851562 231.382812 298.753906 231.414062 298.652344 231.414062 "/></g><g clip-rule="nonzero"><path style=" stroke:none;fill-rule:nonzero;fill:rgb(91.369629%,76.078796%,38.038635%);fill-opacity:1;" d="M 281.9375 158.394531 L 285.863281 170.503906 L 299.34375 167.703125 L 303.191406 155.84375 L 298.574219 152.480469 Z M 285.535156 171.554688 C 285.332031 171.554688 285.144531 171.421875 285.078125 171.21875 L 280.867188 158.25 C 280.785156 158 280.917969 157.730469 281.167969 157.640625 L 298.488281 151.480469 C 298.640625 151.429688 298.808594 151.453125 298.9375 151.546875 L 304.050781 155.265625 C 304.21875 155.386719 304.289062 155.605469 304.222656 155.804688 L 300.179688 168.269531 C 300.125 168.4375 299.988281 168.5625 299.816406 168.597656 L 285.636719 171.542969 C 285.601562 171.550781 285.570312 171.554688 285.535156 171.554688 "/></g><g style="fill:rgb(91.369629%,76.078796%,38.038635%);fill-opacity:1;"><g transform="translate(116.658073, 180.124061)"><path style="stroke:none;" d="M 8.390625 0.242188 C 10.636719 0.21875 12.683594 -1.234375 13.851562 -3.675781 L 13.300781 -3.917969 C 12.332031 -1.871094 10.480469 -0.351562 8.390625 -0.351562 C 5.417969 -0.351562 3.238281 -4.183594 3.238281 -7.816406 C 3.238281 -11.429688 5.417969 -15.28125 8.390625 -15.28125 C 9.863281 -15.28125 11.273438 -14.511719 12.351562 -13.210938 L 12.816406 -13.585938 C 11.625 -15.039062 9.996094 -15.832031 8.390625 -15.875 C 4.601562 -15.875 1.761719 -12.265625 1.761719 -7.816406 C 1.761719 -3.367188 4.601562 0.242188 8.390625 0.242188 Z M 8.390625 0.242188 "/></g></g><g style="fill:rgb(91.369629%,76.078796%,38.038635%);fill-opacity:1;"><g transform="translate(140.550712, 180.124061)"><path style="stroke:none;" d="M 8.390625 0.242188 C 12.15625 0.242188 15.019531 -3.367188 15.019531 -7.816406 C 15.019531 -12.265625 12.15625 -15.875 8.390625 -15.875 C 4.601562 -15.875 1.761719 -12.265625 1.761719 -7.816406 C 1.761719 -3.367188 4.601562 0.242188 8.390625 0.242188 Z M 8.390625 -0.351562 C 5.417969 -0.351562 3.238281 -4.207031 3.238281 -7.816406 C 3.238281 -11.449219 5.417969 -15.28125 8.390625 -15.28125 C 11.339844 -15.28125 13.519531 -11.449219 13.519531 -7.816406 C 13.519531 -4.207031 11.339844 -0.351562 8.390625 -0.351562 Z M 8.390625 -0.351562 "/></g></g><g style="fill:rgb(91.369629%,76.078796%,38.038635%);fill-opacity:1;"><g transform="translate(165.610384, 180.124061)"><path style="stroke:none;" d="M 2.203125 -15.808594 L 2.203125 0 L 2.796875 0 L 2.796875 -13.960938 L 7.925781 0 L 9.558594 0 L 14.730469 -14.09375 L 14.730469 0.0234375 L 16.207031 0.0234375 L 16.207031 -15.808594 L 14.730469 -15.808594 L 9.203125 -0.816406 L 3.699219 -15.808594 Z M 2.203125 -15.808594 "/></g></g><g style="fill:rgb(91.369629%,76.078796%,38.038635%);fill-opacity:1;"><g transform="translate(192.299498, 180.124061)"><path style="stroke:none;" d="M 2.203125 -15.808594 L 2.203125 0 L 2.796875 0 L 2.796875 -13.960938 L 7.925781 0 L 9.558594 0 L 14.730469 -14.09375 L 14.730469 0.0234375 L 16.207031 0.0234375 L 16.207031 -15.808594 L 14.730469 -15.808594 L 9.203125 -0.816406 L 3.699219 -15.808594 Z M 2.203125 -15.808594 "/></g></g><g style="fill:rgb(91.369629%,76.078796%,38.038635%);fill-opacity:1;"><g transform="translate(218.988617, 180.124061)"><path style="stroke:none;" d="M 8.390625 0.242188 C 12.15625 0.242188 15.019531 -3.367188 15.019531 -7.816406 C 15.019531 -12.265625 12.15625 -15.875 8.390625 -15.875 C 4.601562 -15.875 1.761719 -12.265625 1.761719 -7.816406 C 1.761719 -3.367188 4.601562 0.242188 8.390625 0.242188 Z M 8.390625 -0.351562 C 5.417969 -0.351562 3.238281 -4.207031 3.238281 -7.816406 C 3.238281 -11.449219 5.417969 -15.28125 8.390625 -15.28125 C 11.339844 -15.28125 13.519531 -11.449219 13.519531 -7.816406 C 13.519531 -4.207031 11.339844 -0.351562 8.390625 -0.351562 Z M 8.390625 -0.351562 "/></g></g><g style="fill:rgb(91.369629%,76.078796%,38.038635%);fill-opacity:1;"><g transform="translate(244.048293, 180.124061)"><path style="stroke:none;" d="M 2.203125 0 L 2.796875 0 L 2.796875 -14.796875 L 11.496094 -0.0234375 L 11.496094 0 L 12.089844 0 L 12.089844 -15.808594 L 11.496094 -15.808594 L 11.496094 -2.949219 L 3.917969 -15.808594 L 2.203125 -15.808594 Z M 2.203125 0 "/></g></g><g style="fill:rgb(91.369629%,76.078796%,38.038635%);fill-opacity:1;"><g transform="translate(123.443229, 219.124058)"><path style="stroke:none;" d="M 2.203125 0 L 3.699219 0 L 3.699219 -7.683594 L 10.261719 -7.683594 L 10.261719 0 L 11.757812 0 L 11.757812 -15.808594 L 10.261719 -15.808594 L 10.261719 -8.28125 L 3.699219 -8.28125 L 3.699219 -15.808594 L 2.203125 -15.808594 Z M 2.203125 0 "/></g></g><g style="fill:rgb(91.369629%,76.078796%,38.038635%);fill-opacity:1;"><g transform="translate(145.684405, 219.124058)"><path style="stroke:none;" d="M 2.203125 0 L 11.605469 0 L 11.605469 -0.59375 L 3.699219 -0.59375 L 3.699219 -7.707031 L 9.667969 -7.707031 L 9.667969 -8.300781 L 3.699219 -8.300781 L 3.699219 -15.214844 L 11.140625 -15.214844 L 11.140625 -15.808594 L 2.203125 -15.808594 Z M 2.203125 0 "/></g></g><g style="fill:rgb(91.369629%,76.078796%,38.038635%);fill-opacity:1;"><g transform="translate(167.771452, 219.124058)"><path style="stroke:none;" d="M 2.203125 0 L 2.820312 0 L 4.074219 -4.050781 L 10.679688 -4.050781 L 11.914062 0 L 13.476562 0 L 8.609375 -15.808594 L 7.046875 -15.808594 L 7.046875 -15.789062 Z M 4.25 -4.644531 L 7.375 -14.777344 L 10.480469 -4.644531 Z M 4.25 -4.644531 "/></g></g><g style="fill:rgb(91.369629%,76.078796%,38.038635%);fill-opacity:1;"><g transform="translate(191.752173, 219.124058)"><path style="stroke:none;" d="M 2.203125 0 L 3.675781 0 L 3.675781 -7.640625 L 6.054688 -7.640625 L 11.515625 0 L 13.144531 0 L 7.707031 -7.640625 C 9.910156 -7.640625 11.980469 -9.425781 11.980469 -11.757812 C 11.980469 -14.160156 9.910156 -15.808594 7.75 -15.808594 L 2.203125 -15.808594 Z M 3.675781 -8.234375 L 3.675781 -15.214844 L 7.464844 -15.214844 C 9.136719 -15.214844 10.480469 -13.433594 10.480469 -11.757812 C 10.480469 -10.085938 9.136719 -8.234375 7.464844 -8.234375 Z M 3.675781 -8.234375 "/></g></g><g style="fill:rgb(91.369629%,76.078796%,38.038635%);fill-opacity:1;"><g transform="translate(215.380582, 219.124058)"><path style="stroke:none;" d="M 6.210938 0 L 7.707031 0 L 7.707031 -15.214844 L 11.714844 -15.214844 L 11.714844 -15.808594 L 2.203125 -15.808594 L 2.203125 -15.214844 L 6.210938 -15.214844 Z M 6.210938 0 "/></g></g><g style="fill:rgb(91.369629%,76.078796%,38.038635%);fill-opacity:1;"><g transform="translate(237.577724, 219.124058)"><path style="stroke:none;" d="M 2.203125 0 L 3.699219 0 L 3.699219 -7.683594 L 10.261719 -7.683594 L 10.261719 0 L 11.757812 0 L 11.757812 -15.808594 L 10.261719 -15.808594 L 10.261719 -8.28125 L 3.699219 -8.28125 L 3.699219 -15.808594 L 2.203125 -15.808594 Z M 2.203125 0 "/></g></g></g></svg>